<mxfile host="app.diagrams.net" modified="2024-05-22T07:45:53.792Z" agent="Mozilla/5.0 (Macintosh; Intel Mac OS X 10.15; rv:126.0) Gecko/20100101 Firefox/126.0" etag="t_JWH4xIfFpMeRnI59Px" version="24.4.4" type="device">
  <diagram name="Page-1" id="b33cb84f-bf7a-9ccf-f142-242d16432e5d">
    <mxGraphModel dx="1417" dy="853" grid="1" gridSize="10" guides="1" tooltips="1" connect="1" arrows="1" fold="1" page="1" pageScale="1.5" pageWidth="1169" pageHeight="826" background="none" math="1" shadow="0">
      <root>
        <mxCell id="0" style=";html=1;" />
        <mxCell id="1" style=";html=1;" parent="0" />
        <mxCell id="RHo9y7crWxS-WDtQtJWH-1" value="$$\mathbf{\bar{A}}$$" style="text;whiteSpace=wrap;html=1;" vertex="1" parent="1">
          <mxGeometry x="552.5" y="450" width="140" height="38" as="geometry" />
        </mxCell>
        <mxCell id="RHo9y7crWxS-WDtQtJWH-2" value="=" style="text;html=1;align=center;verticalAlign=middle;whiteSpace=wrap;rounded=0;" vertex="1" parent="1">
          <mxGeometry x="599.5" y="543" width="60" height="30" as="geometry" />
        </mxCell>
        <mxCell id="RHo9y7crWxS-WDtQtJWH-3" value="" style="rounded=0;whiteSpace=wrap;html=1;" vertex="1" parent="1">
          <mxGeometry x="652.5" y="496" width="130" height="124" as="geometry" />
        </mxCell>
        <mxCell id="RHo9y7crWxS-WDtQtJWH-4" value="" style="endArrow=none;html=1;rounded=0;entryX=0;entryY=0;entryDx=0;entryDy=0;exitX=1;exitY=1;exitDx=0;exitDy=0;" edge="1" parent="1" source="RHo9y7crWxS-WDtQtJWH-3" target="RHo9y7crWxS-WDtQtJWH-3">
          <mxGeometry width="50" height="50" relative="1" as="geometry">
            <mxPoint x="792.5" y="670" as="sourcePoint" />
            <mxPoint x="642.5" y="610" as="targetPoint" />
          </mxGeometry>
        </mxCell>
        <mxCell id="RHo9y7crWxS-WDtQtJWH-6" value="+" style="text;html=1;align=center;verticalAlign=middle;whiteSpace=wrap;rounded=0;" vertex="1" parent="1">
          <mxGeometry x="772.5" y="543" width="60" height="30" as="geometry" />
        </mxCell>
        <mxCell id="RHo9y7crWxS-WDtQtJWH-8" value="$$\mathbf{\Lambda}$$" style="text;whiteSpace=wrap;html=1;" vertex="1" parent="1">
          <mxGeometry x="702.5" y="450" width="40" height="38" as="geometry" />
        </mxCell>
        <mxCell id="RHo9y7crWxS-WDtQtJWH-9" value="" style="rounded=0;whiteSpace=wrap;html=1;fillColor=#bac8d3;strokeColor=#23445d;" vertex="1" parent="1">
          <mxGeometry x="822.5" y="496" width="50" height="124" as="geometry" />
        </mxCell>
        <mxCell id="RHo9y7crWxS-WDtQtJWH-10" value="" style="rounded=0;whiteSpace=wrap;html=1;rotation=-90;fillColor=#f5f5f5;strokeColor=#666666;fontColor=#333333;" vertex="1" parent="1">
          <mxGeometry x="922.5" y="460" width="50" height="124" as="geometry" />
        </mxCell>
        <mxCell id="RHo9y7crWxS-WDtQtJWH-11" value="$$\mathbf{P}$$" style="text;whiteSpace=wrap;html=1;" vertex="1" parent="1">
          <mxGeometry x="832.5" y="450" width="40" height="38" as="geometry" />
        </mxCell>
        <mxCell id="RHo9y7crWxS-WDtQtJWH-12" value="$$\mathbf{Q^*}$$" style="text;whiteSpace=wrap;html=1;" vertex="1" parent="1">
          <mxGeometry x="932.5" y="450" width="40" height="38" as="geometry" />
        </mxCell>
        <mxCell id="RHo9y7crWxS-WDtQtJWH-14" value="" style="rounded=0;whiteSpace=wrap;html=1;fillColor=#bac8d3;strokeColor=#23445d;fontSize=13;" vertex="1" parent="1">
          <mxGeometry x="490" y="496" width="130" height="124" as="geometry" />
        </mxCell>
        <mxCell id="RHo9y7crWxS-WDtQtJWH-50" value="$$m \times n$$" style="text;html=1;align=center;verticalAlign=middle;whiteSpace=wrap;rounded=0;" vertex="1" parent="1">
          <mxGeometry x="525" y="620" width="60" height="30" as="geometry" />
        </mxCell>
        <mxCell id="RHo9y7crWxS-WDtQtJWH-51" value="$$m \times k$$" style="text;html=1;align=center;verticalAlign=middle;whiteSpace=wrap;rounded=0;" vertex="1" parent="1">
          <mxGeometry x="817.5" y="620" width="60" height="30" as="geometry" />
        </mxCell>
        <mxCell id="RHo9y7crWxS-WDtQtJWH-52" value="$$k \times n$$" style="text;html=1;align=center;verticalAlign=middle;whiteSpace=wrap;rounded=0;" vertex="1" parent="1">
          <mxGeometry x="917.5" y="549" width="60" height="30" as="geometry" />
        </mxCell>
      </root>
    </mxGraphModel>
  </diagram>
</mxfile>
